HIERARCHY
ROOT Hips
{
 OFFSET 0.000000 0.000000 0.000000
 CHANNELS 6 Xposition Yposition Zposition Yrotation Xrotation Zrotation
 JOINT Chest
 {
  OFFSET 0.000000 9.588913 -0.003946
  CHANNELS 3 Yrotation Xrotation Zrotation
  JOINT Chest2
  {
   OFFSET 0.000000 9.541882 0.008053
   CHANNELS 3 Yrotation Xrotation Zrotation
   JOINT Chest3
   {
    OFFSET 0.000000 9.501360 0.000000
    CHANNELS 3 Yrotation Xrotation Zrotation
    JOINT Chest4
    {
     OFFSET 0.000000 9.491660 0.000000
     CHANNELS 3 Yrotation Xrotation Zrotation
     JOINT Neck
     {
      OFFSET 0.000000 14.331917 0.000000
      CHANNELS 3 Yrotation Xrotation Zrotation
      JOINT Head
      {
       OFFSET 0.000000 8.884799 0.017034
       CHANNELS 3 Yrotation Xrotation Zrotation
       End Site
       {
        OFFSET 0.000000 16.896195 0.008993
       }
      }
     }
     JOINT RightCollar
     {
      OFFSET -2.923010 9.499495 0.000000
      CHANNELS 3 Yrotation Xrotation Zrotation
      JOINT RightShoulder
      {
       OFFSET -13.795216 0.000000 0.000000
       CHANNELS 3 Yrotation Xrotation Zrotation
       JOINT RightElbow
       {
        OFFSET -30.272209 0.000000 0.000000
        CHANNELS 3 Yrotation Xrotation Zrotation
        JOINT RightWrist
        {
         OFFSET -24.478199 0.000000 0.000000
         CHANNELS 3 Yrotation Xrotation Zrotation
         End Site
         {
          OFFSET -18.090752 0.000000 0.000000
         }
        }
       }
      }
     }
     JOINT LeftCollar
     {
      OFFSET 2.923010 9.499495 0.000000
      CHANNELS 3 Yrotation Xrotation Zrotation
      JOINT LeftShoulder
      {
       OFFSET 13.795216 0.000000 0.000000
       CHANNELS 3 Yrotation Xrotation Zrotation
       JOINT LeftElbow
       {
        OFFSET 30.272209 0.000000 0.000000
        CHANNELS 3 Yrotation Xrotation Zrotation
        JOINT LeftWrist
        {
         OFFSET 24.478199 0.000000 0.000000
         CHANNELS 3 Yrotation Xrotation Zrotation
         End Site
         {
          OFFSET 18.090752 0.000000 0.000000
         }
        }
       }
      }
     }
    }
   }
  }
 }
 JOINT RightHip
 {
  OFFSET -7.826875 0.019532 0.001973
  CHANNELS 3 Yrotation Xrotation Zrotation
  JOINT RightKnee
  {
   OFFSET 0.000000 -40.546152 -0.001885
   CHANNELS 3 Yrotation Xrotation Zrotation
   JOINT RightAnkle
   {
    OFFSET 0.000000 -39.417092 -0.003189
    CHANNELS 3 Yrotation Xrotation Zrotation
    JOINT RightToe
    {
     OFFSET 0.000000 -7.579396 17.243563
     CHANNELS 3 Yrotation Xrotation Zrotation
     End Site
     {
      OFFSET 0.000000 -1.500329 6.694466
     }
    }
   }
  }
 }
 JOINT LeftHip
 {
  OFFSET 7.826875 0.019532 0.001973
  CHANNELS 3 Yrotation Xrotation Zrotation
  JOINT LeftKnee
  {
   OFFSET 0.000000 -40.546152 -0.001885
   CHANNELS 3 Yrotation Xrotation Zrotation
   JOINT LeftAnkle
   {
    OFFSET 0.000000 -39.417092 -0.003189
    CHANNELS 3 Yrotation Xrotation Zrotation
    JOINT LeftToe
    {
     OFFSET 0.000000 -7.579396 17.243563
     CHANNELS 3 Yrotation Xrotation Zrotation
     End Site
     {
      OFFSET 0.000000 -1.500329 6.694466
     }
    }
   }
  }
 }
}
MOTION
Frames: 11
Frame Time: 0.008333
0.000000 87.345680 0.000000 0.000000 -5.767889 0.000000 0.000000 11.653876 0.000000 0.000000 -5.885988 0.000000 0.000000 -0.000000 0.000000 0.000000 -0.000000 0.000000 0.000000 12.528808 0.000000 0.000000 0.711711 0.000000 0.000000 -0.000000 0.000000 0.000000 -0.000000 0.000000 2.309063 -0.000000 0.000000 -2.309063 -0.000000 -0.000000 0.000000 -0.000000 0.000000 0.000000 0.000000 0.000000 -2.309063 0.000000 0.000000 2.309063 -0.000000 0.000000 0.000000 8.520374 0.000000 0.000000 1.905768 0.000000 -0.000000 -4.658254 0.000000 0.000000 -0.000000 0.000000 0.000000 8.520374 0.000000 0.000000 1.905768 0.000000 -0.000000 -4.658254 0.000000 0.000000 -0.000000 0.000000
-21.231551 47.483539 -22.745967 43.724606 -31.903054 -1.129203 -5.096589 11.161015 -2.345473 -2.851306 6.410818 -1.135288 -3.589726 8.003956 -1.471549 -2.851306 6.410819 -1.135288 0.380827 19.660259 -4.700907 1.486230 -4.788253 -5.130716 13.307004 -9.276599 -5.313029 21.463969 -51.623130 66.324542 82.012939 12.233476 3.164852 21.753390 -3.125936 -22.707806 -7.859464 -5.815310 5.426798 -5.011796 -62.077218 -81.976016 -21.075735 -49.615269 -56.891254 -27.274526 -18.862671 -2.762369 17.552449 -49.376544 -43.188766 144.791350 72.240726 155.322254 -8.227647 -16.035353 5.924939 -0.004313 -0.135200 -0.001979 19.457861 -49.987443 -42.678624 97.078884 62.712641 118.842890 3.240955 -8.665425 -9.521261 0.081472 0.187382 0.035038
-21.231930 47.483119 -22.746569 43.723576 -31.900940 -1.127152 -5.084582 11.158206 -2.340064 -2.842801 6.409440 -1.132243 -3.579018 8.002287 -1.467576 -2.842801 6.409440 -1.132243 0.375018 19.667444 -4.684770 1.476222 -4.781180 -5.111750 13.307754 -9.269451 -5.302164 21.450776 -51.646431 66.306990 81.845566 11.736235 3.154645 21.843133 -3.185246 -22.539911 -7.843747 -5.816307 5.422086 -5.007995 -62.017317 -81.953186 -21.924556 -49.438999 -56.332099 -27.557316 -18.721118 -2.490616 17.556155 -49.376452 -43.194798 144.770266 72.238509 155.303215 -8.231872 -16.037613 5.925196 -0.006866 -0.132713 -0.002719 19.463114 -49.990688 -42.687158 97.080303 62.714360 118.847475 3.243561 -8.658080 -9.520652 0.079213 0.183714 0.032682
-21.234790 47.483422 -22.743498 43.719165 -31.905567 -1.150062 -5.064460 11.163292 -2.309377 -2.834274 6.408391 -1.129009 -3.568281 8.001032 -1.463368 -2.834274 6.408392 -1.129009 0.370107 19.675296 -4.668404 1.467127 -4.773341 -5.092760 13.314056 -9.265447 -5.289933 21.447229 -51.664850 66.283017 81.662918 11.222000 3.135167 21.922482 -3.256273 -22.367709 -7.827629 -5.820908 5.417804 -4.993354 -61.954028 -81.933925 -22.655575 -49.279910 -55.906416 -27.842519 -18.603265 -2.206179 17.530041 -49.378602 -43.157947 144.761768 72.236106 155.295582 -8.232854 -16.061323 5.926509 -0.013902 -0.110526 -0.004682 19.436859 -49.996280 -42.650635 97.084700 62.718098 118.853051 3.263551 -8.616402 -9.513119 0.055405 0.147267 0.021716
-21.234534 47.483629 -22.743534 43.719945 -31.908541 -1.150471 -5.052233 11.163680 -2.303530 -2.826290 6.408059 -1.125673 -3.558225 8.000671 -1.459049 -2.826290 6.408059 -1.125673 0.363754 19.683411 -4.652910 1.456688 -4.765179 -5.074392 13.321182 -9.264929 -5.276812 21.451067 -51.683538 66.261345 81.466455 10.697241 3.110415 21.989022 -3.339303 -22.189583 -7.806563 -5.829613 5.416076 -4.982230 -61.884632 -81.901498 -23.262817 -49.160230 -55.625698 -28.143584 -18.493347 -1.870650 17.526835 -49.373186 -43.157617 144.752316 72.234930 155.286813 -8.235474 -16.064887 5.926513 -0.015951 -0.108604 -0.004609 19.435706 -49.994245 -42.650177 97.085549 62.718109 118.854737 3.263892 -8.614744 -9.513679 0.054908 0.146054 0.022079
-21.233881 47.484184 -22.743372 43.722039 -31.913596 -1.151681 -5.039857 11.166059 -2.297857 -2.818486 6.408548 -1.122157 -3.548395 8.001338 -1.454514 -2.818486 6.408549 -1.122157 0.354233 19.691894 -4.637507 1.442871 -4.756661 -5.055380 13.326511 -9.265257 -5.262178 21.458918 -51.709017 66.244966 81.258583 10.158079 3.086024 22.050424 -3.429941 -21.997453 -7.779872 -5.840836 5.419446 -4.992143 -61.808344 -81.842668 -23.806292 -49.079181 -55.431167 -28.492914 -18.368994 -1.444482 17.520693 -49.364375 -43.156545 144.734268 72.233842 155.269915 -8.238639 -16.068965 5.927195 -0.019209 -0.106414 -0.005540 19.433131 -49.988684 -42.648231 97.076949 62.711945 118.847494 3.260158 -8.613938 -9.514016 0.055391 0.145510 0.022853
-21.233405 47.484746 -22.743281 43.723876 -31.916568 -1.153988 -5.024669 11.168250 -2.290985 -2.809419 6.409105 -1.117484 -3.536965 8.002102 -1.448510 -2.809419 6.409105 -1.117484 0.341225 19.700481 -4.622337 1.425364 -4.748082 -5.035802 13.332338 -9.262218 -5.249925 21.445617 -51.740985 66.239947 81.051130 9.594450 3.070766 22.116556 -3.525066 -21.780033 -7.758311 -5.849936 5.425753 -5.035857 -61.729095 -81.758772 -24.363383 -49.019111 -55.230750 -28.910655 -18.228019 -0.932844 17.515628 -49.358133 -43.153633 144.708729 72.231937 155.245314 -8.246623 -16.071352 5.929407 -0.021761 -0.105143 -0.006328 19.429277 -49.983903 -42.644212 97.066248 62.708504 118.838264 3.259753 -8.614423 -9.514306 0.056225 0.146944 0.023380
-21.230403 47.484804 -22.746763 43.730920 -31.912500 -1.133794 -5.016817 11.163294 -2.308052 -2.799100 6.409255 -1.111895 -3.523949 8.002369 -1.441333 -2.799100 6.409255 -1.111895 0.326913 19.709462 -4.607769 1.406601 -4.739043 -5.016585 13.339768 -9.255594 -5.241407 21.405423 -51.775564 66.247564 80.851203 9.007912 3.066708 22.182657 -3.625072 -21.537197 -7.744570 -5.855250 5.433878 -5.108884 -61.650612 -81.659716 -24.974764 -48.964916 -54.967044 -29.380539 -18.082137 -0.386424 17.537666 -49.350773 -43.187889 144.679281 72.229964 155.216036 -8.258982 -16.054398 5.932336 -0.018316 -0.122699 -0.005313 19.451683 -49.976761 -42.678224 97.060552 62.711970 118.834877 3.244674 -8.654423 -9.522900 0.081212 0.184229 0.034035
-21.230130 47.485488 -22.746701 43.734234 -31.913111 -1.138142 -4.998820 11.164212 -2.297182 -2.788544 6.409637 -1.106507 -3.510640 8.002925 -1.434406 -2.788544 6.409637 -1.106507 0.313114 19.719702 -4.593056 1.388358 -4.728567 -4.997356 13.345717 -9.247878 -5.232316 21.357000 -51.811329 66.266343 80.653694 8.416141 3.066702 22.245383 -3.727638 -21.279371 -7.731910 -5.857437 5.444215 -5.207836 -61.572777 -81.555418 -25.669792 -48.911655 -54.608833 -29.869658 -17.926702 0.153160 17.529797 -49.347253 -43.181768 144.657443 72.228399 155.194448 -8.266017 -16.058424 5.933639 -0.015960 -0.120478 -0.004884 19.445773 -49.973865 -42.669152 97.050348 62.712540 118.827570 3.237267 -8.658320 -9.523985 0.085982 0.187772 0.035462
-21.229386 47.486394 -22.746722 43.738473 -31.915442 -1.140459 -4.980620 11.165184 -2.288410 -2.777828 6.410311 -1.101025 -3.497131 8.003847 -1.427362 -2.777828 6.410312 -1.101025 0.299357 19.731111 -4.578639 1.370235 -4.716738 -4.978484 13.351144 -9.239469 -5.222542 21.301179 -51.847973 66.299236 80.456302 7.835109 3.065538 22.308790 -3.825014 -21.017683 -7.716796 -5.856072 5.453071 -5.325876 -61.498279 -81.456646 -26.474047 -48.846084 -54.134134 -30.355157 -17.750878 0.670325 17.521560 -49.342561 -43.181621 144.643111 72.227133 155.179911 -8.265083 -16.060831 5.932053 -0.015886 -0.119955 -0.004718 19.441666 -49.968451 -42.662909 97.032164 62.706184 118.811201 3.224493 -8.661598 -9.523259 0.089321 0.191013 0.036886
-21.228806 47.487235 -22.746785 43.740944 -31.917107 -1.142122 -4.962216 11.166313 -2.279974 -2.767690 6.410902 -1.095602 -3.484347 8.004662 -1.420399 -2.767690 6.410902 -1.095602 0.288469 19.742563 -4.564749 1.355317 -4.704765 -4.960874 13.363954 -9.231256 -5.211389 21.234374 -51.884670 66.344017 80.259122 7.276558 3.063699 22.371839 -3.909509 -20.763914 -7.694588 -5.852534 5.458966 -5.437584 -61.428697 -81.370817 -27.376598 -48.749273 -53.561513 -30.811924 -17.561468 1.144655 17.516689 -49.339058 -43.183653 144.632302 72.226042 155.169456 -8.260971 -16.060678 5.929737 -0.015093 -0.121088 -0.004443 19.440076 -49.964040 -42.658548 97.020733 62.702954 118.799700 3.220991 -8.664070 -9.520490 0.089400 0.193821 0.037194
